<mxfile host="Electron" agent="Mozilla/5.0 (Windows NT 10.0; Win64; x64) AppleWebKit/537.36 (KHTML, like Gecko) draw.io/24.7.17 Chrome/128.0.6613.36 Electron/32.0.1 Safari/537.36" version="24.7.17">
  <diagram name="PÃ¡gina-1" id="z8IhazC6lqP5r_2lJcYB">
    <mxGraphModel dx="2590" dy="1515" grid="1" gridSize="10" guides="1" tooltips="1" connect="1" arrows="1" fold="1" page="1" pageScale="1" pageWidth="827" pageHeight="1169" math="0" shadow="0">
      <root>
        <mxCell id="0" />
        <mxCell id="1" parent="0" />
        <mxCell id="M1CxPaIo4GleBBz3WT7C-1" value="main.cpp" style="rounded=0;whiteSpace=wrap;html=1;" parent="1" vertex="1">
          <mxGeometry x="346" y="777" width="114" height="60" as="geometry" />
        </mxCell>
        <mxCell id="L8Syoi_AqcQnOcJcqxUH-3" value="" style="edgeStyle=orthogonalEdgeStyle;shape=link;rounded=0;orthogonalLoop=1;jettySize=auto;html=1;" parent="1" source="M1CxPaIo4GleBBz3WT7C-2" target="M1CxPaIo4GleBBz3WT7C-3" edge="1">
          <mxGeometry relative="1" as="geometry" />
        </mxCell>
        <mxCell id="L8Syoi_AqcQnOcJcqxUH-24" value="" style="edgeStyle=orthogonalEdgeStyle;rounded=0;orthogonalLoop=1;jettySize=auto;html=1;entryX=1;entryY=0.5;entryDx=0;entryDy=0;exitX=0.5;exitY=1;exitDx=0;exitDy=0;" parent="1" source="SopKHFYbLwtGXErR5MS7-1" target="M1CxPaIo4GleBBz3WT7C-1" edge="1">
          <mxGeometry relative="1" as="geometry">
            <Array as="points">
              <mxPoint x="509" y="807" />
            </Array>
          </mxGeometry>
        </mxCell>
        <mxCell id="M1CxPaIo4GleBBz3WT7C-2" value="cliente.h" style="rounded=0;whiteSpace=wrap;html=1;" parent="1" vertex="1">
          <mxGeometry x="449" y="492" width="120" height="60" as="geometry" />
        </mxCell>
        <mxCell id="M1CxPaIo4GleBBz3WT7C-3" value="cliente.cpp" style="rounded=0;whiteSpace=wrap;html=1;" parent="1" vertex="1">
          <mxGeometry x="629" y="492" width="120" height="60" as="geometry" />
        </mxCell>
        <mxCell id="L8Syoi_AqcQnOcJcqxUH-4" value="" style="edgeStyle=orthogonalEdgeStyle;shape=link;rounded=0;orthogonalLoop=1;jettySize=auto;html=1;" parent="1" source="M1CxPaIo4GleBBz3WT7C-4" edge="1">
          <mxGeometry relative="1" as="geometry">
            <mxPoint x="629" y="382" as="targetPoint" />
          </mxGeometry>
        </mxCell>
        <mxCell id="L8Syoi_AqcQnOcJcqxUH-9" value="" style="edgeStyle=orthogonalEdgeStyle;rounded=0;orthogonalLoop=1;jettySize=auto;html=1;entryX=1;entryY=0.5;entryDx=0;entryDy=0;exitX=0;exitY=0.5;exitDx=0;exitDy=0;" parent="1" source="M1CxPaIo4GleBBz3WT7C-4" target="M1CxPaIo4GleBBz3WT7C-8" edge="1">
          <mxGeometry relative="1" as="geometry">
            <Array as="points">
              <mxPoint x="399" y="382" />
              <mxPoint x="399" y="522" />
            </Array>
          </mxGeometry>
        </mxCell>
        <mxCell id="L8Syoi_AqcQnOcJcqxUH-29" style="edgeStyle=orthogonalEdgeStyle;rounded=0;orthogonalLoop=1;jettySize=auto;html=1;exitX=0.5;exitY=1;exitDx=0;exitDy=0;entryX=0.5;entryY=0;entryDx=0;entryDy=0;" parent="1" source="M1CxPaIo4GleBBz3WT7C-4" target="M1CxPaIo4GleBBz3WT7C-2" edge="1">
          <mxGeometry relative="1" as="geometry">
            <mxPoint x="593" y="662" as="targetPoint" />
            <Array as="points">
              <mxPoint x="509" y="432" />
              <mxPoint x="509" y="432" />
            </Array>
          </mxGeometry>
        </mxCell>
        <mxCell id="M1CxPaIo4GleBBz3WT7C-4" value="string.h" style="rounded=0;whiteSpace=wrap;html=1;" parent="1" vertex="1">
          <mxGeometry x="449" y="352" width="120" height="60" as="geometry" />
        </mxCell>
        <mxCell id="M1CxPaIo4GleBBz3WT7C-5" value="string.cpp" style="rounded=0;whiteSpace=wrap;html=1;" parent="1" vertex="1">
          <mxGeometry x="629" y="352" width="120" height="60" as="geometry" />
        </mxCell>
        <mxCell id="L8Syoi_AqcQnOcJcqxUH-5" value="" style="edgeStyle=orthogonalEdgeStyle;shape=link;rounded=0;orthogonalLoop=1;jettySize=auto;html=1;" parent="1" source="M1CxPaIo4GleBBz3WT7C-6" target="M1CxPaIo4GleBBz3WT7C-7" edge="1">
          <mxGeometry relative="1" as="geometry" />
        </mxCell>
        <mxCell id="L8Syoi_AqcQnOcJcqxUH-18" value="" style="edgeStyle=orthogonalEdgeStyle;rounded=0;orthogonalLoop=1;jettySize=auto;html=1;" parent="1" source="M1CxPaIo4GleBBz3WT7C-6" target="L8Syoi_AqcQnOcJcqxUH-15" edge="1">
          <mxGeometry relative="1" as="geometry" />
        </mxCell>
        <mxCell id="L8Syoi_AqcQnOcJcqxUH-25" style="edgeStyle=orthogonalEdgeStyle;rounded=0;orthogonalLoop=1;jettySize=auto;html=1;exitX=0.5;exitY=1;exitDx=0;exitDy=0;entryX=0.5;entryY=0;entryDx=0;entryDy=0;" parent="1" source="M1CxPaIo4GleBBz3WT7C-6" target="M1CxPaIo4GleBBz3WT7C-4" edge="1">
          <mxGeometry relative="1" as="geometry">
            <Array as="points" />
            <mxPoint x="613" y="252" as="sourcePoint" />
            <mxPoint x="623" y="522" as="targetPoint" />
          </mxGeometry>
        </mxCell>
        <mxCell id="M1CxPaIo4GleBBz3WT7C-6" value="boolean.h" style="rounded=0;whiteSpace=wrap;html=1;" parent="1" vertex="1">
          <mxGeometry x="449" y="202" width="120" height="60" as="geometry" />
        </mxCell>
        <mxCell id="M1CxPaIo4GleBBz3WT7C-7" value="boolean.cpp" style="rounded=0;whiteSpace=wrap;html=1;" parent="1" vertex="1">
          <mxGeometry x="629" y="202" width="120" height="60" as="geometry" />
        </mxCell>
        <mxCell id="L8Syoi_AqcQnOcJcqxUH-6" value="" style="edgeStyle=orthogonalEdgeStyle;shape=link;rounded=0;orthogonalLoop=1;jettySize=auto;html=1;" parent="1" source="M1CxPaIo4GleBBz3WT7C-8" target="M1CxPaIo4GleBBz3WT7C-9" edge="1">
          <mxGeometry relative="1" as="geometry" />
        </mxCell>
        <mxCell id="M1CxPaIo4GleBBz3WT7C-8" value="reclamo.h" style="rounded=0;whiteSpace=wrap;html=1;" parent="1" vertex="1">
          <mxGeometry x="219" y="492" width="120" height="60" as="geometry" />
        </mxCell>
        <mxCell id="L8Syoi_AqcQnOcJcqxUH-30" style="edgeStyle=orthogonalEdgeStyle;rounded=0;orthogonalLoop=1;jettySize=auto;html=1;exitX=0.5;exitY=1;exitDx=0;exitDy=0;entryX=0;entryY=0.5;entryDx=0;entryDy=0;" parent="1" source="SopKHFYbLwtGXErR5MS7-4" target="M1CxPaIo4GleBBz3WT7C-1" edge="1">
          <mxGeometry relative="1" as="geometry">
            <mxPoint x="73" y="771" as="targetPoint" />
            <Array as="points">
              <mxPoint x="279" y="807" />
            </Array>
          </mxGeometry>
        </mxCell>
        <mxCell id="M1CxPaIo4GleBBz3WT7C-9" value="reclamo.cpp" style="rounded=0;whiteSpace=wrap;html=1;" parent="1" vertex="1">
          <mxGeometry x="79" y="492" width="120" height="60" as="geometry" />
        </mxCell>
        <mxCell id="L8Syoi_AqcQnOcJcqxUH-14" value="fecha.cpp" style="rounded=0;whiteSpace=wrap;html=1;" parent="1" vertex="1">
          <mxGeometry x="79" y="202" width="120" height="60" as="geometry" />
        </mxCell>
        <mxCell id="L8Syoi_AqcQnOcJcqxUH-16" value="" style="edgeStyle=orthogonalEdgeStyle;shape=link;rounded=0;orthogonalLoop=1;jettySize=auto;html=1;" parent="1" source="L8Syoi_AqcQnOcJcqxUH-15" target="L8Syoi_AqcQnOcJcqxUH-14" edge="1">
          <mxGeometry relative="1" as="geometry" />
        </mxCell>
        <mxCell id="L8Syoi_AqcQnOcJcqxUH-15" value="fecha.h" style="rounded=0;whiteSpace=wrap;html=1;" parent="1" vertex="1">
          <mxGeometry x="219" y="202" width="120" height="60" as="geometry" />
        </mxCell>
        <mxCell id="L8Syoi_AqcQnOcJcqxUH-26" style="edgeStyle=orthogonalEdgeStyle;rounded=0;orthogonalLoop=1;jettySize=auto;html=1;exitX=0.5;exitY=1;exitDx=0;exitDy=0;entryX=0.5;entryY=0;entryDx=0;entryDy=0;" parent="1" source="L8Syoi_AqcQnOcJcqxUH-15" target="M1CxPaIo4GleBBz3WT7C-8" edge="1">
          <mxGeometry relative="1" as="geometry">
            <mxPoint x="193" y="501.52" as="sourcePoint" />
            <mxPoint x="85.83999999999992" y="532" as="targetPoint" />
            <Array as="points">
              <mxPoint x="279" y="332" />
              <mxPoint x="279" y="332" />
            </Array>
          </mxGeometry>
        </mxCell>
        <mxCell id="SopKHFYbLwtGXErR5MS7-1" value="arbol_clientes.h" style="rounded=0;whiteSpace=wrap;html=1;" parent="1" vertex="1">
          <mxGeometry x="449" y="632" width="120" height="60" as="geometry" />
        </mxCell>
        <mxCell id="SopKHFYbLwtGXErR5MS7-2" value="arbol_clientes.cpp" style="rounded=0;whiteSpace=wrap;html=1;" parent="1" vertex="1">
          <mxGeometry x="629" y="632" width="120" height="60" as="geometry" />
        </mxCell>
        <mxCell id="SopKHFYbLwtGXErR5MS7-3" value="" style="edgeStyle=orthogonalEdgeStyle;shape=link;rounded=0;orthogonalLoop=1;jettySize=auto;html=1;entryX=0;entryY=0.5;entryDx=0;entryDy=0;exitX=1;exitY=0.5;exitDx=0;exitDy=0;" parent="1" source="SopKHFYbLwtGXErR5MS7-1" target="SopKHFYbLwtGXErR5MS7-2" edge="1">
          <mxGeometry relative="1" as="geometry">
            <mxPoint x="663" y="702" as="sourcePoint" />
            <mxPoint x="689" y="702" as="targetPoint" />
            <Array as="points">
              <mxPoint x="599" y="662" />
              <mxPoint x="599" y="662" />
            </Array>
          </mxGeometry>
        </mxCell>
        <mxCell id="SopKHFYbLwtGXErR5MS7-4" value="lista_reclamos.h" style="rounded=0;whiteSpace=wrap;html=1;" parent="1" vertex="1">
          <mxGeometry x="219" y="632" width="120" height="60" as="geometry" />
        </mxCell>
        <mxCell id="SopKHFYbLwtGXErR5MS7-5" value="lista_reclamos.cpp" style="rounded=0;whiteSpace=wrap;html=1;" parent="1" vertex="1">
          <mxGeometry x="79" y="632" width="120" height="60" as="geometry" />
        </mxCell>
        <mxCell id="SopKHFYbLwtGXErR5MS7-6" value="" style="edgeStyle=orthogonalEdgeStyle;shape=link;rounded=0;orthogonalLoop=1;jettySize=auto;html=1;entryX=1;entryY=0.5;entryDx=0;entryDy=0;exitX=0;exitY=0.5;exitDx=0;exitDy=0;" parent="1" source="SopKHFYbLwtGXErR5MS7-4" target="SopKHFYbLwtGXErR5MS7-5" edge="1">
          <mxGeometry relative="1" as="geometry">
            <mxPoint x="359" y="662" as="sourcePoint" />
            <mxPoint x="169" y="727" as="targetPoint" />
            <Array as="points">
              <mxPoint x="219" y="662" />
              <mxPoint x="219" y="662" />
            </Array>
          </mxGeometry>
        </mxCell>
        <mxCell id="SopKHFYbLwtGXErR5MS7-7" value="menu&lt;span style=&quot;background-color: initial;&quot;&gt;.h&lt;/span&gt;" style="rounded=0;whiteSpace=wrap;html=1;" parent="1" vertex="1">
          <mxGeometry x="219" y="907" width="120" height="60" as="geometry" />
        </mxCell>
        <mxCell id="SopKHFYbLwtGXErR5MS7-8" value="menu.cpp" style="rounded=0;whiteSpace=wrap;html=1;" parent="1" vertex="1">
          <mxGeometry x="79" y="907" width="120" height="60" as="geometry" />
        </mxCell>
        <mxCell id="SopKHFYbLwtGXErR5MS7-9" value="" style="edgeStyle=orthogonalEdgeStyle;shape=link;rounded=0;orthogonalLoop=1;jettySize=auto;html=1;entryX=1;entryY=0.5;entryDx=0;entryDy=0;exitX=0;exitY=0.5;exitDx=0;exitDy=0;" parent="1" source="SopKHFYbLwtGXErR5MS7-7" target="SopKHFYbLwtGXErR5MS7-8" edge="1">
          <mxGeometry relative="1" as="geometry">
            <mxPoint x="359" y="937" as="sourcePoint" />
            <mxPoint x="169" y="1002" as="targetPoint" />
            <Array as="points">
              <mxPoint x="219" y="937" />
              <mxPoint x="219" y="937" />
            </Array>
          </mxGeometry>
        </mxCell>
        <mxCell id="SopKHFYbLwtGXErR5MS7-10" style="edgeStyle=orthogonalEdgeStyle;rounded=0;orthogonalLoop=1;jettySize=auto;html=1;exitX=1;exitY=0.5;exitDx=0;exitDy=0;entryX=0.5;entryY=1;entryDx=0;entryDy=0;" parent="1" source="SopKHFYbLwtGXErR5MS7-7" target="M1CxPaIo4GleBBz3WT7C-1" edge="1">
          <mxGeometry relative="1" as="geometry">
            <mxPoint x="536" y="1297" as="targetPoint" />
            <Array as="points">
              <mxPoint x="403" y="937" />
            </Array>
            <mxPoint x="469" y="957" as="sourcePoint" />
          </mxGeometry>
        </mxCell>
        <mxCell id="SopKHFYbLwtGXErR5MS7-11" value="" style="edgeStyle=orthogonalEdgeStyle;rounded=0;orthogonalLoop=1;jettySize=auto;html=1;exitX=0.5;exitY=1;exitDx=0;exitDy=0;entryX=0.5;entryY=0;entryDx=0;entryDy=0;" parent="1" source="M1CxPaIo4GleBBz3WT7C-2" target="SopKHFYbLwtGXErR5MS7-1" edge="1">
          <mxGeometry relative="1" as="geometry">
            <Array as="points">
              <mxPoint x="509" y="622" />
              <mxPoint x="509" y="622" />
            </Array>
            <mxPoint x="519" y="702" as="sourcePoint" />
            <mxPoint x="509" y="862" as="targetPoint" />
          </mxGeometry>
        </mxCell>
        <mxCell id="SopKHFYbLwtGXErR5MS7-13" style="edgeStyle=orthogonalEdgeStyle;rounded=0;orthogonalLoop=1;jettySize=auto;html=1;exitX=0.5;exitY=1;exitDx=0;exitDy=0;entryX=0.5;entryY=0;entryDx=0;entryDy=0;" parent="1" source="M1CxPaIo4GleBBz3WT7C-8" target="SopKHFYbLwtGXErR5MS7-4" edge="1">
          <mxGeometry relative="1" as="geometry">
            <mxPoint x="259" y="562" as="sourcePoint" />
            <mxPoint x="259" y="792" as="targetPoint" />
            <Array as="points">
              <mxPoint x="279" y="592" />
              <mxPoint x="279" y="592" />
            </Array>
          </mxGeometry>
        </mxCell>
      </root>
    </mxGraphModel>
  </diagram>
</mxfile>
